<?xml version="1.0" encoding="UTF-8"?>
<svg id="Layer_1" data-name="Layer 1" xmlns="http://www.w3.org/2000/svg" viewBox="0 0 219 150.1">
  <defs>
    <style>
      .cls-1 {
        letter-spacing: .02em;
      }

      .cls-1, .cls-2, .cls-3, .cls-4, .cls-5 {
        font-size: 10.94px;
      }

      .cls-2 {
        letter-spacing: 0em;
      }

      .cls-6 {
        fill: #fff;
      }

      .cls-6, .cls-7 {
        font-family: MyriadPro-Regular, 'Myriad Pro';
      }

      .cls-3 {
        letter-spacing: .02em;
      }

      .cls-8, .cls-9 {
        font-size: 8.83px;
      }

      .cls-4 {
        letter-spacing: 0em;
      }

      .cls-7 {
        fill: #fdfffe;
        font-size: 9.26px;
      }

      .cls-10 {
        fill: #0aa06a;
      }

      .cls-10, .cls-11, .cls-12, .cls-13, .cls-14 {
        stroke-width: 0px;
      }

      .cls-11 {
        fill: #80d331;
      }

      .cls-12 {
        fill: #0e7c25;
      }

      .cls-13 {
        fill: #93d66b;
      }

      .cls-14 {
        fill: #b2ff0b;
      }

      .cls-9 {
        letter-spacing: -.08em;
      }
    </style>
  </defs>
  <rect class="cls-11" x="92.79" y="74.8" width="15.57" height="13.88"/>
  <polygon class="cls-14" points="50.72 0 50.72 88.77 66.29 88.77 66.29 14.8 51.49 0 50.72 0"/>
  <polygon class="cls-13" points="70.5 60.07 70.5 89.52 86.06 89.52 86.06 75.08 71.06 60.07 70.5 60.07"/>
  <polygon class="cls-12" points="115.93 74.24 115.93 89.52 131.5 89.52 131.5 60.07 130.09 60.07 115.93 74.24"/>
  <polygon class="cls-10" points="151.98 .07 151.98 88.83 137.39 88.83 137.39 14.86 151.26 .07 151.98 .07"/>
  <text class="cls-7" transform="translate(70.91 43.76)"><tspan x="0" y="0" xml:space="preserve">UNGE SJÅFØRE              </tspan><tspan x="0" y="11.11" xml:space="preserve"> OG              RUS</tspan></text>
  <text/>
  <text class="cls-6" transform="translate(30.95 106.38)"><tspan class="cls-9" x="0" y="0"> </tspan><tspan class="cls-8" x="1.14" y="0">“</tspan><tspan class="cls-5" x="4.27" y="0">en t</tspan><tspan class="cls-1" x="21.76" y="0">r</tspan><tspan class="cls-4" x="25.61" y="0">y</tspan><tspan class="cls-5" x="30.65" y="0">gg </tspan><tspan class="cls-4" x="45.2" y="0">v</tspan><tspan class="cls-5" x="50.35" y="0">ei sta</tspan><tspan class="cls-3" x="73.93" y="0">r</tspan><tspan class="cls-2" x="77.77" y="0">t</tspan><tspan class="cls-5" x="81.33" y="0">er med deg!&quot;</tspan></text>
  <text/>
  <text/>
  <text/>
</svg>